<svg xmlns="http://www.w3.org/2000/svg" xmlns:xlink="http://www.w3.org/1999/xlink" x="0" y="0" width="702" height="412" style="
        width:702px;
        height:412px;
        background: #FFF;
        fill: none;
">
        
        
        <svg xmlns="http://www.w3.org/2000/svg" class="role-diagram-draw-area" style="overflow: visible;"><g class="shapes-region" style="stroke: black; fill: none;"><g class="composite-shape"><path class="real" d=" M322.88,146 L326.95,144.85 L327.03,140.72 L330.11,143.59 L333.83,141.61 L332.84,145.63 L336.47,147.79 L332.4,148.93 L332.32,153.07 L329.24,150.2 L325.53,152.17 L326.52,148.16 Z" style="stroke-width: 1; stroke: rgb(0, 0, 0); fill: none; fill-opacity: 1;"/></g><g class="arrow-line"><path class="connection real" stroke-dasharray="" d="  M318.57,235.02 L286.31,82.33" style="stroke: rgb(208, 2, 27); stroke-opacity: 1; stroke-width: 1; fill: rgb(205, 15, 15); fill-opacity: 1;"/><g stroke="rgb(208,2,27)" stroke-opacity="1" transform="matrix(0.20671650321370674,0.9784008827158209,-0.9784008827158209,0.20671650321370674,285.8920251257847,80.37749725706863)" style="stroke: rgb(208, 2, 27); stroke-width: 1;"><path d=" M10.93,-3.29 Q4.96,-0.45 0,0 Q4.96,0.45 10.93,3.29"/></g></g><g class="arrow-line"><path class="connection real" stroke-dasharray="" d="  M318.93,235.43 L339.44,77.4" style="stroke: rgb(255, 110, 0); stroke-opacity: 1; stroke-width: 1; fill: none; fill-opacity: 1;"/><g stroke="rgb(255,110,0)" stroke-opacity="1" transform="matrix(-0.1286225153479654,0.9916936263511843,-0.9916936263511843,-0.1286225153479654,339.69850372669146,75.41943504917748)" style="stroke: rgb(255, 110, 0); stroke-width: 1;"><path d=" M10.93,-3.29 Q4.96,-0.45 0,0 Q4.96,0.45 10.93,3.29"/></g></g><g class="composite-shape"><path class="real" d=" M255.37,234.47 C255.65,231.57 255.99,228.65 256.37,225.71 C265.4,157.32 300.57,106.04 334.92,111.18 C367.61,116.07 387.78,170.28 381.88,234.45 L318.57,235.02 Z" style="stroke-width: 1; stroke: none; stroke-opacity: 1; fill: rgb(255, 180, 0); fill-opacity: 0.5;"/><path class="real" d=" M255.37,234.47 C255.65,231.57 255.99,228.65 256.37,225.71 C265.4,157.32 300.57,106.04 334.92,111.18 C367.61,116.07 387.78,170.28 381.88,234.45" style="stroke-width: 1; stroke: rgb(255, 110, 0); stroke-opacity: 1; fill: none; fill-opacity: 0.5;"/></g><g class="composite-shape"><path class="real" d=" M279.22,393.54 C245.71,383.98 236.29,305.65 258.19,218.58 C280.1,131.51 325.02,68.68 358.54,78.24 C392.06,87.8 401.47,166.13 379.57,253.2 C357.67,340.27 312.74,403.1 279.22,393.54 Z" style="stroke-width: 1; stroke: rgb(0, 0, 0); stroke-opacity: 1; fill: rgb(60, 120, 0); fill-opacity: 0.5;"/></g><g class="composite-shape"><path class="real" d=" M165.27,235.02 C165.27,198.09 233.91,168.15 318.57,168.15 C403.24,168.15 471.87,198.09 471.87,235.02 C471.87,271.95 403.24,301.89 318.57,301.89 C233.91,301.89 165.27,271.95 165.27,235.02 Z" style="stroke-width: 1; stroke: rgb(74, 74, 74); stroke-opacity: 1; fill: rgb(60, 120, 0); fill-opacity: 0.5;"/></g><g class="arrow-line"><path class="connection real" stroke-dasharray="" d="  M318.57,235.02 L514.58,234.64" style="stroke: rgb(0, 0, 0); stroke-opacity: 1; stroke-width: 1; fill: none; fill-opacity: 1;"/><g stroke="rgb(0,0,0)" stroke-opacity="1" transform="matrix(-0.9999981570651764,0.0019198609978011327,-0.0019198609978011327,-0.9999981570651764,516.5816744831567,234.6408625084858)" style="stroke: rgb(0, 0, 0); stroke-width: 1;"><path d=" M10.93,-3.29 Q4.96,-0.45 0,0 Q4.96,0.45 10.93,3.29"/></g></g><g class="arrow-line"><path class="connection real" stroke-dasharray="" d="  M318.93,235.43 L318.58,26.62" style="stroke: rgb(0, 0, 0); stroke-opacity: 1; stroke-width: 1; fill: none; fill-opacity: 1;"/><g stroke="rgb(0,0,0)" stroke-opacity="1" transform="matrix(0.0017453283658985064,0.9999984769132877,-0.9999984769132877,0.0017453283658985064,318.5791090815322,24.621007414433336)" style="stroke: rgb(0, 0, 0); stroke-width: 1;"><path d=" M10.93,-3.29 Q4.96,-0.45 0,0 Q4.96,0.45 10.93,3.29"/></g></g><g class="arrow-line"><path class="connection real" stroke-dasharray="" d="  M318.88,235.89 L356.23,86.41 L369.3,34.1" style="stroke: rgb(0, 0, 0); stroke-opacity: 1; stroke-width: 1; fill: none; fill-opacity: 1;"/><g stroke="rgb(0,0,0)" stroke-opacity="1" transform="matrix(-0.24242990806856984,0.9701689232674199,-0.9701689232674199,-0.24242990806856984,369.78823147639037,32.16266074822761)" style="stroke: rgb(0, 0, 0); stroke-width: 1;"><path d=" M10.93,-3.29 Q4.96,-0.45 0,0 Q4.96,0.45 10.93,3.29"/></g></g><g class="composite-shape"><path class="real" d=" M362.85,51.66 L358.39,48.85 C354.69,46.52 349.97,47.72 347.85,51.54 L341.74,62.54 L339.11,60.88 L339.86,70.96 L348.51,66.8 L345.88,65.15 L351.99,54.15 C352.8,52.69 354.6,52.23 356.02,53.12 L360.48,55.93 Z" style="stroke-width: 1; stroke: rgb(255, 110, 0); stroke-opacity: 1; fill: none; fill-opacity: 1;"/></g><g class="composite-shape"><path class="real" d=" M382.24,234.87 C381.94,238.14 381.57,241.43 381.13,244.74 C372.1,313.14 336.94,364.42 302.59,359.28 C269.71,354.36 249.5,299.55 255.73,234.89 L318.93,235.43 Z" style="stroke-width: 1; stroke: none; stroke-opacity: 1; fill: rgb(255, 180, 0); fill-opacity: 0.5;"/><path class="real" d=" M382.24,234.87 C381.94,238.14 381.57,241.43 381.13,244.74 C372.1,313.14 336.94,364.42 302.59,359.28 C269.71,354.36 249.5,299.55 255.73,234.89" style="stroke-width: 1; stroke: rgb(255, 110, 0); stroke-opacity: 1; fill: none; fill-opacity: 0.5;"/></g><g class="arrow-line"><path class="connection real" stroke-dasharray="" d="  M356.51,233.88 C353.84,220.24 337.12,207.14 328.53,200.59" style="stroke: rgb(0, 0, 0); stroke-width: 1; fill: none; fill-opacity: 1;"/><g stroke="#000" transform="matrix(0.7960020025346219,0.6052939880428945,-0.6052939880428945,0.7960020025346219,326.9845262237319,199.42286078772372)" style="stroke: rgb(0, 0, 0); stroke-width: 1;"><path d=" M10.93,-3.29 Q4.96,-0.45 0,0 Q4.96,0.45 10.93,3.29"/></g></g><g class="composite-shape"><path class="real" d=" M430.1,226.2 L432.18,230.91 L437.29,230.35 L434.25,234.5 L437.29,238.65 L432.18,238.09 L430.1,242.8 L428.03,238.09 L422.91,238.65 L425.95,234.5 L422.91,230.35 L428.03,230.91 Z" style="stroke-width: 1; stroke: rgb(0, 0, 0); fill: none; fill-opacity: 1;"/></g><g class="composite-shape"><path class="real" d=" M338.25,123.68 L343.32,122.81 L344.03,117.72 L347.31,121.68 L352.08,119.74 L350.29,124.56 L354.35,127.72 L349.28,128.59 L348.57,133.68 L345.29,129.72 L340.52,131.66 L342.31,126.84 Z" style="stroke-width: 1; stroke: rgb(0, 0, 0); fill: none; fill-opacity: 1;"/></g><g/></g><g/><g/><g/></svg>
        <svg xmlns="http://www.w3.org/2000/svg" xmlns:xlink="http://www.w3.org/1999/xlink" width="700" height="410" style="width:700px;height:410px;font-family:Asana-Math, Asana;background:#FFF;"><g><g><g><text x="525.875" y="225.09375" style="white-space:pre;stroke:none;fill:rgb(0,0,0);fill-opacity:1;font-size:15px;font-family:Arial, Helvetica, sans-serif;font-weight:400;font-style:normal;dominant-baseline:text-before-edge;text-decoration:none solid rgb(0, 0, 0);">y</text></g></g></g><g><g><g><text x="314.453125" y="1.75" style="white-space:pre;stroke:none;fill:rgb(0,0,0);fill-opacity:1;font-size:15px;font-family:Arial, Helvetica, sans-serif;font-weight:400;font-style:normal;dominant-baseline:text-before-edge;text-decoration:none solid rgb(0, 0, 0);">x</text></g></g></g><g><g><g><text x="281.390625" y="60.375" style="white-space:pre;stroke:none;fill:rgb(0,0,0);fill-opacity:1;font-size:15px;font-family:Arial, Helvetica, sans-serif;font-weight:400;font-style:normal;dominant-baseline:text-before-edge;text-decoration:none solid rgb(0, 0, 0);">z</text></g></g></g><g><g><g><text x="353.8125" y="197.890625" style="white-space:pre;stroke:none;fill:rgb(0,0,0);fill-opacity:1;font-size:15px;font-family:Arial, Helvetica, sans-serif;font-weight:400;font-style:normal;dominant-baseline:text-before-edge;text-decoration:none solid rgb(0, 0, 0);">PA</text></g></g></g><g><g><g><text x="332.859375" y="30.421875" style="white-space:pre;stroke:none;fill:rgb(255,110,0);fill-opacity:1;font-size:15px;font-family:Arial, Helvetica, sans-serif;font-weight:400;font-style:normal;dominant-baseline:text-before-edge;text-decoration:none solid rgb(255, 110, 0);">Inc</text></g></g></g></svg>
</svg>
