<?xml version="1.0" encoding="utf-8" ?>
<svg xmlns="http://www.w3.org/2000/svg" xmlns:xlink="http://www.w3.org/1999/xlink" width="512" height="512">
	<path fill="#F6F7EB" transform="scale(0.666667 0.666667)" d="M-0 -0L768 0L768 768L-0 768L0 -0Z"/>
	<path fill="#151A23" transform="scale(0.666667 0.666667)" d="M72.0432 176.062L72.9519 175.722C74.0597 176.068 74.1327 176.173 74.8691 177.082C74.8073 178.52 74.5933 178.57 73.6875 179.617L72.9141 179.948C71.6995 179.786 71.7553 179.643 70.9544 178.688C70.9631 177.056 70.9911 177.158 72.0432 176.062Z"/>
	<path fill="#151A23" transform="scale(0.666667 0.666667)" d="M140.364 551.062C141.272 551.176 141.801 551.261 142.433 552.04C143.124 552.892 142.886 553.598 142.764 554.585C141.879 555.607 141.815 555.74 140.438 556.1C139.425 555.628 138.443 554.946 137.975 553.894C137.714 553.309 137.652 552.956 138.024 552.375C138.651 551.395 139.325 551.335 140.364 551.062Z"/>
	<path fill="#151A23" transform="scale(0.666667 0.666667)" d="M84.5766 608.437C85.7441 608.118 86.3126 608.194 87.4596 608.438C88.3608 609.408 88.511 609.592 88.8006 610.875C88.2437 612.306 88.0409 612.339 86.8125 613.147C85.9816 613.413 85.3814 613.577 84.5625 613.142C83.5271 612.594 83.3013 611.714 82.9637 610.688C83.3747 609.48 83.6622 609.274 84.5766 608.437Z"/>
	<path fill="#FB9D38" transform="scale(0.666667 0.666667)" d="M550.645 80.0625C551.408 79.9577 552.097 79.8375 552.853 80.0534C554.214 80.4419 555.598 81.4079 556.287 82.6617C556.963 83.8936 557.05 85.2981 556.618 86.625C556.039 88.4027 554.554 89.4376 552.946 90.1875C551.973 90.3674 551.099 90.5067 550.143 90.1567C548.714 89.6336 547.681 88.4437 547.083 87.0687C546.601 85.9575 546.607 84.73 547.054 83.6081C547.74 81.8852 548.984 80.7907 550.645 80.0625Z"/>
	<path fill="#E94F37" transform="scale(0.666667 0.666667)" d="M679.843 634.688C680.62 634.522 681.521 634.375 682.312 634.509C683.698 634.744 685.413 636.147 686.128 637.32C686.948 638.665 686.828 640.912 686.341 642.352C685.744 644.119 684.706 644.97 683.062 645.73C682.24 645.817 681.654 645.872 680.836 645.671C679.298 645.292 677.577 643.936 676.815 642.562C676.073 641.226 676.08 639.264 676.582 637.835C677.167 636.169 678.333 635.443 679.843 634.688Z"/>
	<path fill="#F8812F" transform="scale(0.666667 0.666667)" d="M651.972 603.562C652.799 603.305 653.59 603.143 654.455 603.275C656.462 603.582 658.072 604.699 659.136 606.429C659.995 607.826 660.113 609.865 659.599 611.393C658.959 613.295 657.877 613.913 656.137 614.752C655.315 614.832 654.533 614.827 653.71 614.73C651.898 614.515 650.153 613.535 649.087 612.023C648.275 610.869 648.463 609.757 648.707 608.438C649.087 606.375 650.288 604.742 651.972 603.562Z"/>
	<path fill="#151A23" transform="scale(0.666667 0.666667)" d="M117.769 137.669C118.744 137.535 119.756 137.454 120.739 137.534C122.357 137.667 123.807 138.705 124.751 139.989C125.938 141.603 126.411 143.725 126.053 145.692C125.523 148.599 123.087 150.276 120.775 151.758C119.876 151.838 118.917 151.961 118.02 151.825C116.292 151.564 114.657 150.507 113.694 149.047C112.63 147.435 112.502 145.4 112.873 143.552C113.448 140.687 115.421 139.158 117.769 137.669Z"/>
	<path fill="#151A23" transform="scale(0.666667 0.666667)" d="M704.819 396.366L704.772 396.729C704.283 400.721 704.339 404.844 704.165 408.869L702.828 426.178C699.759 453.361 692.638 479.982 682.844 505.475C680.784 510.838 678.826 516.834 675.991 521.812L675.141 522.188L674.779 521.662C682.433 503.249 689.233 484.726 694.144 465.375C698.024 450.088 700.539 434.08 702.017 418.395L702.715 404.812C702.755 402.362 702.954 399.635 702.361 397.26L704.819 396.366Z"/>
	<path fill="#151A23" transform="scale(0.666667 0.666667)" d="M685.219 541.611C686.793 541.592 688.347 541.627 689.812 542.276C692.299 543.377 694.654 546.382 695.406 548.959C696.105 551.354 695.649 554.153 694.372 556.27C692.621 559.174 689.966 560.531 686.791 561.358C685.502 561.274 684.109 561.15 682.931 560.581C680.237 559.278 677.906 556.648 676.948 553.825C676.153 551.481 677.015 548.808 678.178 546.729C679.866 543.711 681.982 542.445 685.219 541.611Z"/>
	<path fill="#151A23" transform="scale(0.666667 0.666667)" d="M196.095 84.1274C199.034 83.9119 202.089 84.6474 204.562 86.2587C207.648 88.2687 209.906 91.6328 210.65 95.224C211.443 99.0545 210.648 102.444 208.436 105.684C205.974 109.289 202.379 110.83 198.249 111.596C194.844 111.514 192.198 110.996 189.31 109.103C185.961 106.908 183.659 103.156 182.984 99.2344C182.389 95.7773 183.594 92.4012 185.655 89.6364C188.283 86.1083 191.944 84.8056 196.095 84.1274Z"/>
	<path fill="#F8812F" transform="scale(0.666667 0.666667)" d="M151.682 91.5864C154.418 91.3101 156.878 91.3997 159.407 92.5903C163.378 94.4593 166.668 98.5964 168.029 102.733C169.275 106.522 169.393 110.899 167.438 114.473C164.724 119.432 160.543 121.704 155.343 123.325C152.499 123.808 149.398 123.371 146.825 122.046C142.995 120.073 140.581 116.58 139.25 112.569C137.859 108.376 138.362 104.187 140.43 100.312C142.855 95.7673 146.824 93.0126 151.682 91.5864Z"/>
	<path fill="#E94F37" transform="scale(0.666667 0.666667)" d="M670.414 397.05L670.493 396.478L671.258 383.591C678.979 384.79 687.075 385.256 694.282 388.465C688.529 394.461 680.625 396.59 672.987 399.304C664.993 401.847 657.098 403.087 648.897 404.557C628.387 408.232 607.768 410.175 586.969 411.235L549.431 412.555L549.75 406.502L654.359 398.814L670.414 397.05Z"/>
	<path fill="#E94F37" transform="scale(0.666667 0.666667)" d="M660.308 535.259C663.465 536.415 666.911 537.823 669.336 540.206C669.334 541.785 668.116 544.008 667.437 545.438C663.491 553.743 657.845 561.528 652.477 568.964C644.627 579.837 636.139 590.389 626.71 599.944C618.568 608.195 609.391 615.664 600.315 622.861C592.241 629.265 584.052 635.773 575.503 641.535C557.71 653.528 537.971 663.645 517.786 670.894L488.062 681.912C467.949 689.316 446.884 693.698 425.913 697.804L417.375 699.171L416.816 698.625C417.003 698.395 417.13 698.099 417.377 697.936C418.287 697.334 434.804 694.881 437.537 694.302C456.869 690.206 476.069 685.066 494.625 678.202L512.303 670.951C515.666 669.686 518.605 667.505 521.714 665.718L540.904 654.6C576.269 633.334 608.04 607.373 633.331 574.469C643.059 561.814 651.504 548.539 660.308 535.259Z"/>
	<path fill="#393E41" transform="scale(0.666667 0.666667)" d="M551.697 384.778L655.841 381.462L654.359 398.814L549.75 406.502L549.429 394.147C549.277 391.853 548.141 387.216 549.009 385.221L551.697 384.778Z"/>
	<path fill="#E94F37" transform="scale(0.666667 0.666667)" d="M76.3943 437.575L75.9265 437.522C72.4478 410.167 72.4426 383.195 75.4164 355.783C76.5801 345.057 77.9377 334.252 80.2506 323.706C84.6217 303.776 91.214 284.41 99.0474 265.594C101.572 259.529 104.646 253.692 107.686 247.877L121.086 223.312L129.397 209.627L135.377 199.502C135.981 198.468 136.877 196.291 137.714 195.514C138.319 194.952 139.824 194.387 140.597 193.969L146.374 190.551L160.714 180.952L182.252 165.377L210.375 144.674C221.848 136.908 234.176 129.592 246.562 123.387C260.203 116.555 274.682 111.388 288.937 106.047C294.331 104.026 328.502 94.0664 332.438 95.8843L332.558 96.7481C331.351 97.2581 329.479 97.1798 328.123 97.3925L317.998 99.2716C308.746 101.25 299.373 103.869 290.438 106.989C276.524 111.848 262.497 117.2 249.212 123.606C236.967 129.512 224.77 136.741 213.468 144.302L161.586 182.159L150.632 189.469L143.482 193.809C141.917 194.705 139.726 195.665 138.559 197.027C135.536 200.555 133.372 205.593 130.983 209.625L114.81 237.558L102.264 263.174C102.989 263.828 105.238 264.163 106.239 264.505C108.912 265.418 111.498 266.528 114.078 267.675C111.129 274.716 108.847 282.287 106.529 289.564C99.0203 313.133 93.0785 337.625 90.0624 362.184C88.7244 373.08 87.7439 383.988 87.941 394.977C88.0091 398.773 87.9031 402.767 88.4294 406.524L88.4897 406.919C87.2413 410.159 85.1278 413.184 83.4773 416.245C80.3879 421.974 76.4163 430.932 76.3943 437.575Z"/>
	<path fill="#E94F37" transform="scale(0.666667 0.666667)" d="M153.786 670.665C147.696 668.72 142.298 665.713 137.252 661.786C127.705 654.356 121.348 643.053 119.868 631.04C118.219 617.664 121.932 605.091 130.226 594.527C138.312 584.227 150.646 578.224 163.555 576.755C169.094 576.125 174.737 576.062 180.221 577.188C182.855 577.729 185.452 578.504 187.959 579.477L193.388 581.877C193.83 582.082 194.789 582.698 195.188 582.719C195.633 582.742 196.054 582.511 196.488 582.408C201.429 586.701 206.526 592.416 210.251 597.795L210.311 598.105C211.074 601.576 213.594 604.958 214.88 608.356C219.764 621.266 219.598 635.954 212.782 648.257L226.005 656.289C247.358 668.966 270.466 679.198 294.373 685.982L316.507 691.781C318.135 692.186 322.582 692.735 323.812 693.744C323.976 693.878 323.999 694.123 324.092 694.312L323.438 694.882C317.557 693.808 311.775 692.069 306 690.542C296.435 688.012 287.016 685.53 277.688 682.18C261.093 676.219 245.283 668.707 229.833 660.254L220.052 654.594C217.342 652.98 214.472 651.39 212.211 649.165C204.104 661.331 192.119 668.86 177.832 671.659C169.886 673.216 161.617 672.515 153.786 670.665Z"/>
	<path fill="#E94F37" transform="scale(0.666667 0.666667)" d="M688.869 402.192C689.243 403.64 688.82 405.387 688.638 406.854L687.433 415.918C683.777 441.591 678.002 466.192 668.422 490.33C666.214 495.893 664.028 501.695 661.312 507.029C660.216 507.159 659.165 507.077 658.069 507.006C653.086 518.385 646.164 528.289 639.321 538.584C626.253 558.244 610.974 577.537 594.188 594.172C587.865 600.437 580.823 606.186 573.926 611.807C548.676 632.384 521.502 649.992 491.086 661.894C472.885 669.015 453.93 673.664 434.653 676.734C420.51 678.987 406.056 680.695 391.727 681.02C369.361 681.526 347.182 679.083 325.272 674.724L325.069 658.733C332.454 660.438 340.286 661.433 347.803 662.345C362.692 664.15 377.497 665.018 392.495 664.448C414.598 663.609 437.826 660.392 459 653.979C469.519 650.794 479.592 646.572 489.582 642.029C498.031 638.187 506.386 634.087 514.296 629.214C523.458 623.571 532.067 617.057 540.531 610.43L555.331 598.207C557.868 596.094 560.712 594.207 562.956 591.781L562.836 591.212C566.665 590.728 570.919 588.374 574.137 586.294C576.023 585.388 577.722 583.993 579.375 582.722C585.833 577.755 590.458 571.593 595.242 565.105C602.02 558.387 607.739 550.442 613.442 542.825C637.792 510.295 656.492 473.469 664.838 433.502C666.732 424.433 668.378 415.136 668.999 405.885L688.869 402.192Z"/>
	<path fill="#E94F37" transform="scale(0.666667 0.666667)" d="M566.81 171.279C566.68 167.98 564.786 164.213 563.915 160.993C560.772 149.383 562.123 137.513 567.173 126.653C572.904 114.327 582.98 104.826 595.79 100.206C608.707 95.5473 622.564 96.4868 634.929 102.406C647.861 108.597 655.399 118.544 660.005 131.846C664.458 146.001 663.738 161.139 656.87 174.401C652.735 182.385 647.484 187.865 639.909 192.634C657.088 212.259 668.975 234.023 679.111 257.915C690.709 285.251 698.747 313.661 702.549 343.14C703.78 352.685 705.505 363.131 704.88 372.748L704.613 375.64C704.547 376.46 704.476 377.247 704.52 378.07C707.462 380.019 712.445 379.137 713.803 383.438C713.525 385.31 712.869 386.656 711.385 387.877L710.649 387.75C708.881 385.473 705.244 384.571 702.598 383.777C703.436 378.977 703.503 374.725 703.516 369.884C701.267 333.617 693.697 298.942 680.407 265.112C674.926 251.16 668.649 237.479 661.067 224.53C657.769 218.898 654.305 213.056 650.413 207.822C646.737 202.878 642.489 198.255 639.358 192.95C636.046 194.956 632.634 197.226 628.867 198.25L628.5 198.344C635.121 203.931 639.895 213.019 644.347 220.425C657.332 242.031 667.241 264.467 675.103 288.366C682.059 309.508 687.329 331.253 689.203 353.494L690.02 377.332C685.881 376.62 681.697 376.418 677.512 376.145C675.668 376.024 672.829 376.212 671.221 375.415C669.654 334.729 659.032 294.527 642.002 257.625C636.07 244.771 629.465 231.99 621.646 220.168C617.116 213.319 611.901 207.097 606.797 200.685C597.952 199.686 590.541 195.522 583.003 191.164L582.095 191.486C576.045 185.519 571.046 178.616 566.81 171.279Z"/>
	<path fill="#393E41" transform="scale(0.666667 0.666667)" d="M654.344 407.478C654.717 409.171 654.025 411.471 653.746 413.182L651.732 425.553C649.059 440.282 646.018 455.431 641.557 469.728C635.224 490.026 626.368 508.995 614.913 526.891L602.6 545.706C600.584 548.773 598.131 551.812 596.469 555.076C595.464 557.656 593.813 562.04 595.037 564.77L595.242 565.105C590.458 571.593 585.833 577.755 579.375 582.722C577.722 583.993 576.023 585.388 574.137 586.294C570.919 588.374 566.665 590.728 562.836 591.212L562.956 591.781C560.712 594.207 557.868 596.094 555.331 598.207L540.531 610.43C532.067 617.057 523.458 623.571 514.296 629.214C506.386 634.087 498.031 638.187 489.582 642.029C479.592 646.572 469.519 650.794 459 653.979C437.826 660.392 414.598 663.609 392.495 664.448C377.497 665.018 362.692 664.15 347.803 662.345C340.286 661.433 332.454 660.438 325.069 658.733C319.147 657.696 313.132 655.882 307.373 654.197C285.404 647.768 264.67 638.326 245.215 626.328C237.865 621.794 230.585 617.122 223.938 611.585C218.918 607.403 214.541 602.705 210.251 597.795C206.526 592.416 201.429 586.701 196.488 582.408C194.411 579.583 191.717 577.113 189.296 574.579L177.551 561.542C167.989 549.925 159.994 537.073 151.373 524.761L156.573 523.941L190.378 515.337C194.092 514.624 197.884 513.19 201.521 512.108L227.331 503.435C233.627 501.11 240.072 498.773 245.845 495.319C248.905 501.177 252.984 506.586 257.101 511.75C265.062 521.734 273.672 530.743 284.023 538.289L301.529 548.99L301.967 549.172L302.333 549.332C305.805 550.876 309.075 552.916 312.478 554.618C319.199 557.979 326.156 560.9 333.293 563.257C367.716 574.624 408.956 570.624 442.469 557.925L460.974 549.636C465.465 547.977 469.905 545.174 473.953 542.626C482.793 537.062 491.346 530.76 499.133 523.788C530.388 495.804 547.444 456.725 549.801 415.167L562.467 414.838L562.951 414.797C586.031 414.778 609.486 413.171 632.415 410.556C639.596 409.737 647.332 409.212 654.344 407.478Z"/>
	<path fill="#F6F7EB" transform="scale(0.666667 0.666667)" d="M561.103 493.312L562.13 493.216C563.075 493.931 563.112 494.061 563.51 495.188L562.688 496.185L561.914 496.614C560.907 496.386 560.829 496.157 560.127 495.375C560.253 494.219 560.315 494.178 561.103 493.312Z"/>
	<path fill="#F6F7EB" transform="scale(0.666667 0.666667)" d="M568.607 430.688L569.63 430.483C570.771 430.861 570.887 430.844 571.573 431.812C571.296 433.042 571.134 433.106 570.188 433.966L569.414 434.118C568.172 433.646 568.104 433.705 567.46 432.562C567.718 431.595 567.905 431.421 568.607 430.688Z"/>
	<path fill="#F6F7EB" transform="scale(0.666667 0.666667)" d="M501.769 567.938C502.311 567.798 502.88 567.814 503.438 567.784C504.511 568.488 504.866 569.039 505.418 570.188C505.131 571.391 505.059 571.547 504.188 572.422C503.701 572.546 503.185 572.583 502.688 572.648C501.552 571.924 501.208 571.616 500.683 570.375C500.815 569.059 500.916 568.963 501.769 567.938Z"/>
	<path fill="#F6F7EB" transform="scale(0.666667 0.666667)" d="M233.357 532.312C234.252 532.344 234.67 532.53 235.5 532.841C236.383 533.702 236.578 534.112 236.863 535.312C236.326 536.486 235.951 536.836 234.883 537.562L233.624 537.73C232.937 537.474 232.309 537.29 231.779 536.762C230.867 535.856 231.024 535.599 231.02 534.375C231.74 533.183 232.086 532.882 233.357 532.312Z"/>
	<path fill="#F6F7EB" transform="scale(0.666667 0.666667)" d="M313.948 629.062L314.503 628.906C315.488 628.687 316.581 628.781 317.379 629.438C318.292 630.188 318.536 630.958 318.62 632.062C318.006 633.332 317.946 633.532 316.688 634.307C315.652 634.516 314.867 634.694 313.875 634.143C312.794 633.542 312.504 632.795 312.148 631.688C312.64 630.307 312.849 630.039 313.948 629.062Z"/>
	<path fill="#E0C9AF" transform="scale(0.666667 0.666667)" d="M624.801 444.938C625.196 444.855 625.827 444.676 626.25 444.712C627.074 444.782 627.743 445.287 628.309 445.852C629.262 446.803 629.54 447.549 629.569 448.875C629.04 450.328 628.572 450.881 627.255 451.688C626.804 451.842 626.781 451.872 626.245 451.938C624.924 452.099 624.039 451.507 623.062 450.717C622.353 449.542 622.369 448.912 622.498 447.562C623.118 446.342 623.681 445.722 624.801 444.938Z"/>
	<path fill="#F6F7EB" transform="scale(0.666667 0.666667)" d="M346.923 604.202C348.652 604.032 350.552 604.091 352.203 604.665C355.043 605.652 357.367 607.773 358.561 610.55C359.644 613.068 359.564 615.483 358.501 618C357.021 621.504 354.27 623.279 350.89 624.619C349.58 624.966 348.069 625.258 346.718 625.105C344.296 624.832 342.198 623.369 340.818 621.415C339.251 619.196 338.31 616.079 338.847 613.371L338.94 612.938C339.11 612.098 339.327 611.4 339.693 610.618C341.336 607.107 343.403 605.552 346.923 604.202Z"/>
	<path fill="#E94F37" transform="scale(0.666667 0.666667)" d="M284.023 538.289L301.529 548.99L301.967 549.172L301.915 549.9C301.834 551.989 303.976 555.044 304.757 557.083C308.32 566.395 307.594 578.34 300.371 585.746C295.738 590.496 289.144 594.128 282.541 595.104C274.899 595.862 266.74 594.109 260.443 589.552C254.955 585.58 250.395 578.978 249.435 572.203C248.358 564.599 250.828 558.056 255.427 552.08C260.027 546.103 266.802 541.272 274.198 539.545C277.403 538.796 280.759 538.698 284.023 538.289Z"/>
	<path fill="#F6F7EB" transform="scale(0.666667 0.666667)" d="M562.836 591.212C552.94 591.895 542.616 590.9 533.817 585.896C526.696 581.846 521.104 573.134 519.078 565.337C516.597 555.791 518.096 544.888 523.158 536.41C528.524 527.423 537.514 520.821 547.688 518.346C558.263 515.773 567.823 518.453 576.889 523.903C585.816 529.457 593.338 537.376 595.815 547.899C596.384 550.318 595.974 552.742 596.469 555.076C595.464 557.656 593.813 562.04 595.037 564.77L595.242 565.105C590.458 571.593 585.833 577.755 579.375 582.722C577.722 583.993 576.023 585.388 574.137 586.294C570.919 588.374 566.665 590.728 562.836 591.212Z"/>
	<path fill="#E0C9AF" transform="scale(0.666667 0.666667)" d="M576.889 523.903C585.816 529.457 593.338 537.376 595.815 547.899C596.384 550.318 595.974 552.742 596.469 555.076C595.464 557.656 593.813 562.04 595.037 564.77L595.242 565.105C590.458 571.593 585.833 577.755 579.375 582.722C577.722 583.993 576.023 585.388 574.137 586.294C573.818 586.079 573.559 585.722 573.182 585.648C572.146 585.446 569.317 586.304 568.105 586.44C558.172 587.56 547.689 588.743 538.163 585.102C546.194 580.098 553.667 573.798 559.907 566.67C570.856 554.164 577.981 540.906 576.889 523.903Z"/>
	<path fill="#393E41" transform="scale(0.666667 0.666667)" d="M356.094 107.499C360.615 105.07 368.396 105.514 373.559 105.296C404.91 103.97 435.361 107.111 465.424 116.164C497.024 125.68 526.342 139.609 552.655 159.706C557.497 163.403 562.516 166.937 566.81 171.279C571.046 178.616 576.045 185.519 582.095 191.486C591.783 203.321 600.179 216.502 607.911 229.689L622.479 256.169C637.005 285.884 646.973 317.082 652.668 349.648L655.483 371.082C655.589 372.382 656.032 374.641 655.76 375.885L655.536 376.498L575.821 379.594L560.18 380.548C556.918 380.762 553.487 380.837 550.293 381.538L548.302 381.938C548.09 382.873 548.253 383.507 548.438 384.429C549.399 384.929 550.636 384.773 551.697 384.778L549.009 385.221C548.141 387.216 549.277 391.853 549.429 394.147L549.75 406.502L549.431 412.555C549.209 413.729 549.094 413.703 549.75 414.68C554.018 414.648 558.729 414.219 562.951 414.797L562.467 414.838L549.801 415.167C547.444 456.725 530.388 495.804 499.133 523.788C491.346 530.76 482.793 537.062 473.953 542.626C469.905 545.174 465.465 547.977 460.974 549.636L442.469 557.925C408.956 570.624 367.716 574.624 333.293 563.257C326.156 560.9 319.199 557.979 312.478 554.618C309.075 552.916 305.805 550.876 302.333 549.332L301.967 549.172L301.529 548.99L284.023 538.289C273.672 530.743 265.062 521.734 257.101 511.75C252.984 506.586 248.905 501.177 245.845 495.319C240.072 498.773 233.627 501.11 227.331 503.435L201.521 512.108C197.884 513.19 194.092 514.624 190.378 515.337L156.573 523.941C157.231 523.528 157.631 523.171 158.115 522.562L157.189 521.721C154.913 522.441 152.53 522.861 150.147 522.967C148.498 521.617 147.864 519.134 147.086 517.195C139.258 518.914 130.997 519.291 123 519.385C107.313 519.569 91.2405 518.137 75.9961 514.328C68.0082 512.333 55.8452 507.889 51.5786 500.371C50.3251 498.163 50.2105 495.718 51.0194 493.312C52.2604 489.621 55.0132 486.89 57.9533 484.48C65.2073 478.534 73.8615 474.701 82.1134 470.36C80.7233 468.997 80.105 467.12 79.3162 465.375C77.5474 461.462 76.9328 457.225 76.4342 453C75.8217 447.809 76.2384 442.766 76.3943 437.575C76.4163 430.932 80.3879 421.974 83.4773 416.245C85.1278 413.184 87.2413 410.159 88.4897 406.919C91.4253 406.911 95.7859 403.1 98.5529 401.627C101.49 400.063 104.598 398.596 107.752 397.528C108.807 397.171 110.079 396.715 111.188 396.633C112.215 396.557 113.07 396.822 114.174 396.646L114.522 396.586L112.312 396.341L111.887 395.625C111.252 375.185 113.994 354.531 118.175 334.568C122.896 312.025 129.378 290.631 138.231 269.34C156.258 225.986 183.947 184.555 221.379 155.647C237.112 143.496 255.577 133.173 273.96 125.617C287.574 120.022 301.223 116.013 315.458 112.372C318.506 111.592 325.07 109.065 328.033 110.299C324.682 112.22 321.352 114.12 318.375 116.603C308.287 125.017 304.459 136.522 303.328 149.222L388.948 149.178C388.285 141.617 387.019 134.697 383.412 127.923C377.495 116.813 367.783 111.012 356.094 107.499Z"/>
	<path fill="#F6F7EB" transform="scale(0.666667 0.666667)" d="M549.133 251.438L550.5 251.234L551.371 251.904C551.599 253.005 551.343 253.085 550.752 254.062L549.562 254.206C548.735 253.576 548.65 253.547 548.349 252.562L549.133 251.438Z"/>
	<path fill="#F6F7EB" transform="scale(0.666667 0.666667)" d="M176.206 358.312C176.66 358.347 177.198 358.516 177.645 358.617L178.258 359.625C178.087 360.795 178.081 360.761 177.188 361.542L175.946 361.381C175.02 360.346 175.043 360.447 175.105 359.062L176.206 358.312Z"/>
	<path fill="#F6F7EB" transform="scale(0.666667 0.666667)" d="M567.191 240.562L568.875 240.366C569.992 241.012 570.102 241.105 570.69 242.25C570.395 243.353 570.25 243.515 569.438 244.33L567.562 244.505C566.641 244.008 566.469 243.874 565.899 243C566.059 241.529 566.187 241.545 567.191 240.562Z"/>
	<path fill="#F6F7EB" transform="scale(0.666667 0.666667)" d="M194.053 438.188L195.562 438.05C196.596 438.711 196.677 438.744 197.13 439.875C196.913 441.255 196.829 441.454 195.938 442.528C195.216 442.752 194.814 442.846 194.062 442.519C193.006 442.061 192.955 441.628 192.602 440.625C192.982 439.368 193.052 439.128 194.053 438.188Z"/>
	<path fill="#F6F7EB" transform="scale(0.666667 0.666667)" d="M210.655 455.062C211.952 454.766 212.121 454.761 213.375 455.196C214.075 456.003 214.63 456.537 214.512 457.688C214.377 459.003 213.777 459.471 212.812 460.253C211.889 460.443 211.265 460.595 210.375 460.074C209.371 459.486 209.341 458.712 209.099 457.688C209.49 456.332 209.657 456.061 210.655 455.062Z"/>
	<path fill="#F6F7EB" transform="scale(0.666667 0.666667)" d="M236.953 260.812C238.045 260.629 238.946 260.371 239.941 261.096C240.986 261.859 241.313 262.606 241.534 263.812C240.958 265.059 240.637 265.35 239.438 266.02L239.089 266.108C237.953 266.227 237.149 266.035 236.25 265.312C235.461 264.679 235.193 263.848 235.13 262.875C235.694 261.707 235.939 261.54 236.953 260.812Z"/>
	<path fill="#FB9D38" transform="scale(0.666667 0.666667)" d="M423.731 147.485C425.793 147.408 429.122 147.544 430.688 148.994C430.275 149.634 430.307 149.452 429.562 149.291C425.681 148.448 423.694 148.512 419.871 149.73C423.27 150.771 426.843 148.999 429.577 152.089C430.831 153.506 430.747 154.64 430.576 156.407L429.276 158.812C428.025 160.608 425.947 161.825 423.75 161.937C422.207 162.015 420.614 160.884 419.637 159.783C418.115 158.071 417.295 155.303 417.579 153.033C417.739 151.752 418.419 150.862 419.453 150.133C420.301 149.535 419.859 149.94 420.45 149.365C421.523 148.32 422.301 147.923 423.731 147.485Z"/>
	<path fill="#F6F7EB" transform="scale(0.666667 0.666667)" d="M199.194 300.435L201.905 300.866C203.742 301.305 205.839 302.549 206.743 304.27C207.459 305.633 207.473 307.374 206.992 308.812C206.082 311.534 204.164 312.813 201.707 313.955C200.273 314.049 198.952 314.104 197.625 313.462C196.029 312.69 194.497 311.283 193.908 309.577C193.238 307.636 193.409 305.325 194.404 303.524C195.424 301.676 197.273 300.966 199.194 300.435Z"/>
	<path fill="#E94F37" transform="scale(0.666667 0.666667)" d="M490.673 265.587L490.959 265.427C493.313 264.076 495.445 262.353 497.703 260.849C508.365 253.749 544.794 228.369 547.424 216.434C547.903 214.257 547.082 212.286 545.802 210.549C541.629 204.885 531.912 203.638 525.698 201.423C533.903 201.723 544.089 203.218 549.938 209.549C551.688 211.443 552.875 213.271 552.818 215.929C552.622 224.94 535.656 238.217 529.15 244.107C524.493 248.323 519.64 252.212 514.555 255.899L501.652 264.726C499.75 265.982 496.531 267.507 495.221 269.227L495.012 269.173C494.553 268.582 494.196 268.196 493.58 267.757C493.244 267.517 492.946 267.319 492.647 267.028C491.991 266.388 491.496 266.001 490.673 265.587Z"/>
	<path fill="#E94F37" transform="scale(0.666667 0.666667)" d="M242.422 490.036L245.845 495.319C240.072 498.773 233.627 501.11 227.331 503.435L201.521 512.108C197.884 513.19 194.092 514.624 190.378 515.337L156.573 523.941C157.231 523.528 157.631 523.171 158.115 522.562L157.189 521.721C154.913 522.441 152.53 522.861 150.147 522.967C148.498 521.617 147.864 519.134 147.086 517.195C154.82 515.082 163.001 513.905 170.837 512.052L202.33 503.444C215.922 499.521 229.4 495.638 242.422 490.036Z"/>
	<path fill="#F8812F" transform="scale(0.666667 0.666667)" d="M157.189 521.721C157.356 521.403 160.416 520.779 161.084 520.611L180.386 515.882C182.47 515.363 184.998 515.077 186.973 514.324C188.227 513.845 189.185 513.956 190.457 513.726L196.108 512.434L196.5 512.812C195.667 513.306 193.455 513.878 192.451 513.922C191.442 513.966 191.084 514.65 190.378 515.337L156.573 523.941C157.231 523.528 157.631 523.171 158.115 522.562L157.189 521.721Z"/>
	<defs>
		<linearGradient id="gradient_0" gradientUnits="userSpaceOnUse" x1="492.09299" y1="192.28799" x2="444.703" y2="195.41">
			<stop offset="0" stop-color="#E0D0B6"/>
			<stop offset="1" stop-color="#F0EBDF"/>
		</linearGradient>
	</defs>
	<path fill="url(#gradient_0)" transform="scale(0.666667 0.666667)" d="M465.462 168.801L471.086 168.758C477.341 169.372 483.465 173.085 487.343 177.938C491.167 182.724 493.616 189.672 492.894 195.821L492.807 196.5C492.27 201.057 490.71 205.221 488.191 209.062C484.344 214.931 479.088 218.007 472.311 219.412C466.468 219.579 461.857 218.992 456.732 216.002C450.501 212.365 446.504 206.584 444.759 199.644C443.131 193.176 443.997 186.287 447.602 180.64C451.876 173.945 457.81 170.434 465.462 168.801Z"/>
	<path fill="#E94F37" transform="scale(0.666667 0.666667)" d="M315.019 153.549C333.283 152.911 349.926 156.308 366.484 163.99C371.726 166.423 376.797 169.452 381.898 172.181C377.752 178.759 373.208 184.079 366.534 188.171C360.878 191.241 354.95 193.034 348.566 193.763C338.135 194.955 328.435 192.118 320.25 185.577C310.11 177.473 305.672 166.464 304.261 153.81L315.019 153.549Z"/>
	<path fill="#FB9D38" transform="scale(0.666667 0.666667)" d="M256.061 170.747C262.987 169.623 271.077 172.212 276.873 175.938C284.805 181.038 290.253 189.378 292.114 198.625C294.012 208.049 291.355 218.966 286.067 226.922C280.41 235.434 271.073 240.106 261.342 242.141L260.398 242.32C252.986 243.54 244.921 241.407 238.827 237.102C231.535 231.951 225.823 223.248 224.345 214.387C222.757 204.865 224.834 194.5 230.6 186.654C236.929 178.043 245.484 172.42 256.061 170.747Z"/>
	<defs>
		<linearGradient id="gradient_1" gradientUnits="userSpaceOnUse" x1="151.549" y1="483.392" x2="89.960701" y2="407.194">
			<stop offset="0" stop-color="#F7ECB5"/>
			<stop offset="1" stop-color="#FDFCEE"/>
		</linearGradient>
	</defs>
	<path fill="url(#gradient_1)" transform="scale(0.666667 0.666667)" d="M114.522 396.586C124.777 394.575 137.547 399.745 145.905 405.419C156.032 412.294 163.537 421.971 165.835 434.191C168.638 449.104 166.215 464.77 157.587 477.404C151.066 486.953 141.15 493.586 129.75 495.767L126.466 496.235C116.592 497.582 104.33 494.112 96.424 488.083C91.3677 484.227 84.214 476.526 82.1134 470.36C80.7233 468.997 80.105 467.12 79.3162 465.375C77.5474 461.462 76.9328 457.225 76.4342 453C75.8217 447.809 76.2384 442.766 76.3943 437.575C76.4163 430.932 80.3879 421.974 83.4773 416.245C85.1278 413.184 87.2413 410.159 88.4897 406.919C91.4253 406.911 95.7859 403.1 98.5529 401.627C101.49 400.063 104.598 398.596 107.752 397.528C108.807 397.171 110.079 396.715 111.188 396.633C112.215 396.557 113.07 396.822 114.174 396.646L114.522 396.586Z"/>
	<path fill="#FB9D38" transform="scale(0.666667 0.666667)" d="M122.539 460.267C123.213 460.118 123.635 460.211 124.309 460.312C122.455 461.584 119.518 461.936 117.372 462.835C108.696 466.473 100.504 472.754 95.5577 480.833L91.5554 476.454L85.8386 467.828C86.7124 466.946 91.3807 466.487 92.8928 466.155C102.793 463.984 112.454 461.532 122.539 460.267Z"/>
	<path fill="#FB9D38" transform="scale(0.666667 0.666667)" d="M119.215 403.286C127.984 403.564 134.277 406.265 141.638 410.89C151.83 417.291 158.169 426.941 160.776 438.567C159.316 440.298 157.833 441.584 156.027 442.938L154.652 439.148C151.716 432.223 144.201 423.829 137.062 421.141C131.117 418.903 123.86 422.132 118.398 424.503C110.673 428.307 103.609 432.685 96.719 437.859C91.1784 442.019 86.1219 446.225 82.0102 451.85C82.1927 439.186 84.9085 427.554 93.3715 417.727C100.243 409.748 108.539 404.127 119.215 403.286Z"/>
	<path fill="#F6F7EB" transform="scale(0.666667 0.666667)" d="M242.422 490.036C236.846 481.826 232.75 472.14 229.365 462.839C220.419 438.262 215.923 410.593 217.48 384.409L137.652 371.784L127.844 369.759C125.781 369.31 123.254 368.886 121.485 367.688L121.56 366.938C122.561 366.534 123.223 366.531 124.292 366.639L154.688 371.229L217.583 379.633L217.634 379.085C218.296 371.87 218.996 364.662 220.501 357.562C228.22 321.15 247.85 288.529 276.522 264.795C309.345 237.623 352.537 221.781 395.337 225.825C423.473 228.483 453.25 237.218 476.625 253.529C481.408 256.866 486.532 260.719 490.268 265.237L490.673 265.587C491.496 266.001 491.991 266.388 492.647 267.028C492.946 267.319 493.244 267.517 493.58 267.757C494.196 268.196 494.553 268.582 495.012 269.173C494.736 269.343 493.92 269.734 493.786 270.014C487.244 276.106 480.454 281.043 473.211 286.227C468.683 289.467 464.295 292.773 459.323 295.337C457.981 294.56 456.816 293.824 455.699 292.742C442.817 284.212 429.103 277.446 414.056 273.678C396.534 269.29 377.533 269.528 359.909 273.188C328.328 279.746 298.606 300.008 281.013 327.101C267.397 348.07 261.253 372.08 260.461 396.907L260.423 407.086C260.451 408.353 260.323 409.956 260.564 411.188C260.631 411.528 260.769 411.679 260.951 411.935C280.398 414.453 300.615 414.66 320.213 414.858C368.079 415.341 415.638 412.501 463.034 405.722L511.669 397.487L512.091 397.464L526.319 395.428C522.002 398.285 515.934 398.378 511.2 400.243C493.622 404.394 475.772 406.996 457.895 409.445C400.258 417.339 341.496 419.188 283.407 416.396L261.334 414.712C260.819 417.167 261.748 420.506 262.182 422.992C265.153 439.989 271.496 457.596 280.928 472.089C287.331 481.926 295.27 492.243 304.308 499.828C305.671 502.928 308.432 504.85 310.923 507.023C315.74 511.226 320.73 515.316 326.069 518.842C333.912 524.021 342.393 528.315 350.544 532.987C361.346 539.179 371.658 545.784 383.325 550.372C389.193 552.681 395.127 554.619 401.379 555.581C417.179 558.013 432.94 554.824 448.282 551.132L455.946 549.314C456.94 549.092 458.445 548.571 459.453 548.771C460.01 548.881 460.528 549.309 460.974 549.636L442.469 557.925C408.956 570.624 367.716 574.624 333.293 563.257C326.156 560.9 319.199 557.979 312.478 554.618C309.075 552.916 305.805 550.876 302.333 549.332L301.967 549.172L301.529 548.99L284.023 538.289C273.672 530.743 265.062 521.734 257.101 511.75C252.984 506.586 248.905 501.177 245.845 495.319L242.422 490.036Z"/>
	<path fill="#FB9D38" transform="scale(0.666667 0.666667)" d="M490.268 265.237L490.673 265.587C491.496 266.001 491.991 266.388 492.647 267.028C492.946 267.319 493.244 267.517 493.58 267.757C494.196 268.196 494.553 268.582 495.012 269.173C494.736 269.343 493.92 269.734 493.786 270.014C487.244 276.106 480.454 281.043 473.211 286.227C468.683 289.467 464.295 292.773 459.323 295.337C457.981 294.56 456.816 293.824 455.699 292.742C458.889 287.646 465.08 283.812 469.802 280.202L484.241 269.266C486.14 267.905 488.605 266.807 490.268 265.237Z"/>
	<path fill="#E94F37" transform="scale(0.666667 0.666667)" d="M260.951 411.935C260.769 411.679 260.631 411.528 260.564 411.188C260.323 409.956 260.451 408.353 260.423 407.086L260.461 396.907C261.253 372.08 267.397 348.07 281.013 327.101C298.606 300.008 328.328 279.746 359.909 273.188C377.533 269.528 396.534 269.29 414.056 273.678C429.103 277.446 442.817 284.212 455.699 292.742C456.816 293.824 457.981 294.56 459.323 295.337C471.363 304.28 482.299 315.286 490.424 327.938C496.905 338.03 501.487 348.956 505.276 360.287L511.669 397.487L463.034 405.722C415.638 412.501 368.079 415.341 320.213 414.858C300.615 414.66 280.398 414.453 260.951 411.935Z"/>
	<path fill="#E94F37" transform="scale(0.666667 0.666667)" d="M495.012 269.173L495.221 269.227C502.493 276.496 509.453 283.758 515.65 291.999C527.39 307.612 536.106 326.112 541.734 344.754C544.573 354.159 546.588 363.909 547.71 373.666C547.779 374.258 548.383 381.158 548.416 381.188C548.592 381.344 549.978 381.484 550.293 381.538L548.302 381.938C548.09 382.873 548.253 383.507 548.438 384.429C549.399 384.929 550.636 384.773 551.697 384.778L549.009 385.221C548.141 387.216 549.277 391.853 549.429 394.147L549.75 406.502L549.431 412.555C549.209 413.729 549.094 413.703 549.75 414.68C554.018 414.648 558.729 414.219 562.951 414.797L562.467 414.838L549.801 415.167C547.444 456.725 530.388 495.804 499.133 523.788C491.346 530.76 482.793 537.062 473.953 542.626C469.905 545.174 465.465 547.977 460.974 549.636C460.528 549.309 460.01 548.881 459.453 548.771C458.445 548.571 456.94 549.092 455.946 549.314L448.282 551.132C432.94 554.824 417.179 558.013 401.379 555.581C395.127 554.619 389.193 552.681 383.325 550.372C371.658 545.784 361.346 539.179 350.544 532.987C342.393 528.315 333.912 524.021 326.069 518.842C320.73 515.316 315.74 511.226 310.923 507.023C308.432 504.85 305.671 502.928 304.308 499.828C295.27 492.243 287.331 481.926 280.928 472.089C271.496 457.596 265.153 439.989 262.182 422.992C261.748 420.506 260.819 417.167 261.334 414.712L283.407 416.396C341.496 419.188 400.258 417.339 457.895 409.445C475.772 406.996 493.622 404.394 511.2 400.243C515.934 398.378 522.002 398.285 526.319 395.428L512.091 397.464L511.669 397.487L505.276 360.287C501.487 348.956 496.905 338.03 490.424 327.938C482.299 315.286 471.363 304.28 459.323 295.337C464.295 292.773 468.683 289.467 473.211 286.227C480.454 281.043 487.244 276.106 493.786 270.014C493.92 269.734 494.736 269.343 495.012 269.173Z"/>
	<path fill="#E0C9AF" transform="scale(0.666667 0.666667)" d="M495.012 269.173L495.221 269.227C502.493 276.496 509.453 283.758 515.65 291.999C527.39 307.612 536.106 326.112 541.734 344.754C544.573 354.159 546.588 363.909 547.71 373.666C547.779 374.258 548.383 381.158 548.416 381.188C548.592 381.344 549.978 381.484 550.293 381.538L548.302 381.938C548.09 382.873 548.253 383.507 548.438 384.429C549.399 384.929 550.636 384.773 551.697 384.778L549.009 385.221C548.141 387.216 549.277 391.853 549.429 394.147L549.75 406.502L549.431 412.555C549.209 413.729 549.094 413.703 549.75 414.68C554.018 414.648 558.729 414.219 562.951 414.797L562.467 414.838L549.801 415.167C547.444 456.725 530.388 495.804 499.133 523.788C491.346 530.76 482.793 537.062 473.953 542.626C469.905 545.174 465.465 547.977 460.974 549.636C460.528 549.309 460.01 548.881 459.453 548.771C458.445 548.571 456.94 549.092 455.946 549.314L448.282 551.132C432.94 554.824 417.179 558.013 401.379 555.581C395.127 554.619 389.193 552.681 383.325 550.372C371.658 545.784 361.346 539.179 350.544 532.987C342.393 528.315 333.912 524.021 326.069 518.842C320.73 515.316 315.74 511.226 310.923 507.023C308.432 504.85 305.671 502.928 304.308 499.828L315.817 508.578C322.443 513.339 329.587 517.553 337.13 520.688C366.439 532.867 403.938 529.787 432.822 517.801C462.587 505.45 489.217 478.689 501.399 448.91C506.526 436.378 509.29 422.943 510.971 409.544C511.304 406.892 512.23 402.697 511.2 400.243C515.934 398.378 522.002 398.285 526.319 395.428L512.091 397.464L511.669 397.487L505.276 360.287C501.487 348.956 496.905 338.03 490.424 327.938C482.299 315.286 471.363 304.28 459.323 295.337C464.295 292.773 468.683 289.467 473.211 286.227C480.454 281.043 487.244 276.106 493.786 270.014C493.92 269.734 494.736 269.343 495.012 269.173Z"/>
	<path fill="#F6F7EB" transform="scale(0.666667 0.666667)" d="M493.786 270.014C494.62 272.331 494.285 275.187 494.797 277.663C496.134 284.124 497.897 290.524 499.864 296.82C506.793 318.993 516.568 340.029 521.412 362.843C515.986 361.359 510.917 360.46 505.276 360.287C501.487 348.956 496.905 338.03 490.424 327.938C482.299 315.286 471.363 304.28 459.323 295.337C464.295 292.773 468.683 289.467 473.211 286.227C480.454 281.043 487.244 276.106 493.786 270.014Z"/>
</svg>
